<?xml version="1.0" encoding="UTF-8"?>
<svg width="24px" height="24px" viewBox="0 0 24 24" stroke-width="1.5" fill="none" xmlns="http://www.w3.org/2000/svg" color="#6366f1">
  <path d="M12 22v-8m0 0c-2.5 0-5-3.5-5-8 0-3 2-4 5-4s5 1 5 4c0 4.5-2.5 8-5 8z" stroke="#6366f1" stroke-width="1.5" stroke-linecap="round" stroke-linejoin="round"></path>
  <path d="M9 14c-2.5 0-5-3.5-5-8 0-3 2-4 5-4m6 12c2.5 0 5-3.5 5-8 0-3-2-4-5-4" stroke="#6366f1" stroke-width="1.5" stroke-linecap="round" stroke-linejoin="round"></path>
  <path d="M12 22c-3 0-6-2-6-5m6 5c3 0 6-2 6-5" stroke="#6366f1" stroke-width="1.5" stroke-linecap="round" stroke-linejoin="round"></path>
</svg>